# xmcd CD database file
#
# Track frame offsets:
#	150
#	25712
#	42845
#	68407
#	96715
#
# Disc length: 4440 seconds
#
# Revision: 0
# Processed by: cddbd v1.5PL3 Copyright (c) Steve Scherf et al.
# Submitted via: CDex 1.51
#
DISCID=38115605
DTITLE=w-inds. - Pieces
DYEAR=2004
DGENRE=JPop
TTITLE0=Pieces
TTITLE1=move your body
TTITLE2=Pieces -Instrumental-
TTITLE3=move your body -Instrumental-
TTITLE4=CCCD DATA
EXTD=YEAR: 2004
EXTT0=
EXTT1=
EXTT2=
EXTT3=
EXTT4=
PLAYORDER=
